<svg width="12" height="16" viewBox="0 0 12 16" fill="none" xmlns="http://www.w3.org/2000/svg">
<path d="M5.31738 2.29209H5.73726V2.71226H6.0333V2.29209H6.45318V1.99634H6.0333V1.57617H5.73726V1.99634H5.31738V2.29209Z" fill="#D22F27" fill-opacity="0.5"/>
<path d="M9.34504 9.64632C9.27617 9.64625 9.20955 9.62178 9.157 9.57725C9.10445 9.53273 9.06937 9.47103 9.05798 9.40311C9.0466 9.33518 9.05964 9.26541 9.0948 9.20619C9.12996 9.14697 9.18497 9.10211 9.25005 9.07958C9.45873 9.02524 9.65063 8.91989 9.8085 8.773C9.96637 8.62612 10.0853 8.4423 10.1545 8.23808C10.3282 7.65736 10.1877 6.5166 8.53501 4.37758C8.5116 4.3473 8.49439 4.3127 8.48436 4.27576C8.47433 4.23883 8.47167 4.20028 8.47654 4.16231C8.48141 4.12435 8.49371 4.08772 8.51274 4.05451C8.53177 4.0213 8.55716 3.99217 8.58745 3.96877C8.61348 3.94537 8.6443 3.92792 8.67776 3.91765C8.71122 3.90738 8.74652 3.90453 8.7812 3.9093C8.81587 3.91407 8.84909 3.92635 8.87854 3.94528C8.90798 3.96421 8.93294 3.98933 8.95168 4.01889C10.4001 5.89305 11.0216 7.37035 10.7128 8.40504C10.6177 8.69818 10.4518 8.96336 10.2298 9.17712C10.0078 9.39089 9.73656 9.54663 9.44003 9.63059C9.40946 9.64104 9.37736 9.64636 9.34504 9.64632ZM3.53084 3.9478C3.53103 3.97145 3.52779 3.995 3.52123 4.01773C3.51707 4.03924 3.50939 4.05991 3.4985 4.07892C3.4918 4.09407 3.39477 4.00403 3.38515 4.02239C3.38195 4.0253 3.50345 3.99908 3.50025 4.00199C3.13082 4.47082 2.78903 4.96078 2.47663 5.46938C1.58442 6.85082 1.51332 7.67717 1.6526 8.15008C1.72432 8.35905 1.8456 8.54754 2.00605 8.69942C2.1665 8.85129 2.36136 8.96204 2.57395 9.02218C2.6129 9.03494 2.64881 9.05555 2.67947 9.08275C2.71013 9.10994 2.73489 9.14314 2.75221 9.18028C2.76952 9.21743 2.77903 9.25773 2.78015 9.2987C2.78126 9.33967 2.77396 9.38043 2.75868 9.41846C2.7325 9.47633 2.69005 9.52532 2.6365 9.55947C2.58295 9.59362 2.52061 9.61144 2.45711 9.61077C2.41612 9.61113 2.37542 9.60392 2.33706 9.5895C2.03215 9.49801 1.75396 9.33398 1.52631 9.11145C1.29866 8.88893 1.12834 8.61455 1.02992 8.3118C0.712029 7.23223 1.35744 5.69812 2.95012 3.76189C2.97957 3.72633 3.01616 3.69735 3.05752 3.67682C3.09888 3.65629 3.14409 3.64467 3.19022 3.64272H3.19313C3.23265 3.64163 3.2721 3.64684 3.30998 3.65816C3.32808 3.66335 3.34556 3.67048 3.36213 3.67943C3.37882 3.68556 3.39415 3.69486 3.4073 3.70682C3.42689 3.72165 3.44434 3.7391 3.45916 3.75869C3.47291 3.77279 3.48397 3.78928 3.4918 3.80735C3.50446 3.82472 3.5133 3.84459 3.51773 3.86563C3.52681 3.89205 3.53125 3.91985 3.53084 3.9478Z" fill="black" fill-opacity="0.5"/>
<path d="M9.46905 6.32142C9.49432 7.6016 9.0101 8.83941 8.12287 9.76263C7.83771 10.069 7.49292 10.3139 7.10968 10.4823C6.72645 10.6507 6.31285 10.7389 5.89427 10.7416C5.4757 10.7444 5.06098 10.6615 4.67558 10.4982C4.29018 10.3348 3.94224 10.0944 3.6531 9.79176C3.205 9.33355 2.85261 8.7907 2.61649 8.19489C2.38036 7.59907 2.26522 6.9622 2.27778 6.32142C2.27778 6.24567 2.2807 6.16991 2.28361 6.09415C2.28886 5.94694 2.3015 5.8001 2.32149 5.65416C2.35088 5.39691 2.40156 5.14254 2.47301 4.89366C2.54969 4.60683 2.65309 4.32783 2.78187 4.06031C2.79976 4.02386 2.82508 3.99156 2.85619 3.96547C2.8873 3.93937 2.92352 3.92007 2.96253 3.9088H2.96544C2.97095 3.90642 2.97695 3.90542 2.98292 3.90588C3.01291 3.90605 3.04259 3.91198 3.07034 3.92336C3.08272 3.92457 3.09467 3.92856 3.1053 3.93502C3.10822 3.93793 3.11404 3.94085 3.11696 3.94376C3.13217 3.94969 3.14604 3.95861 3.15775 3.96999C3.17549 3.98428 3.19118 4.00095 3.20437 4.01952C3.21676 4.03322 3.22663 4.049 3.23351 4.06614C3.24492 4.08284 3.25285 4.10167 3.25682 4.1215C3.26496 4.14692 3.2689 4.17349 3.26848 4.20018C3.26863 4.22281 3.26569 4.24536 3.25973 4.26719C3.25603 4.28757 3.24914 4.30723 3.23934 4.32547C3.23351 4.34004 3.22477 4.35461 3.21603 4.37209L3.2102 4.37792C3.11696 4.55275 2.53624 4.68853 2.5374 5.01779C2.53799 5.16406 2.67901 5.31383 2.51118 5.37735C2.65687 5.32199 2.82004 5.25789 2.99778 5.19378C2.94227 5.41185 2.90427 5.63401 2.88415 5.85813C2.86958 6.01256 2.86084 6.16699 2.86084 6.32142C2.86084 7.84534 3.56306 9.1653 4.57706 9.78594C4.9701 10.0326 5.42536 10.1619 5.88937 10.1588C6.35337 10.1558 6.80686 10.0203 7.19657 9.76845C8.19601 9.1449 8.88658 7.83369 8.88658 6.32142C8.89013 5.62729 8.73778 4.94121 8.44077 4.31381C8.39765 4.216 8.36134 4.11534 8.33208 4.01253C8.33366 3.95594 8.3514 3.90099 8.38321 3.85416C8.41501 3.80733 8.45956 3.77058 8.51157 3.74824C8.65726 3.67831 8.75604 3.54136 8.83675 3.73134C8.95185 4.00233 9.19806 4.60811 9.27674 4.89949C9.40564 5.36243 9.47034 5.84088 9.46905 6.32142Z" fill="black" fill-opacity="0.5"/>
<path d="M5.66181 0.366856C5.66764 0.363942 5.67055 0.358115 5.67346 0.355201C5.70839 0.311342 5.75634 0.279711 5.81041 0.264873C5.82122 0.259252 5.8332 0.256258 5.84538 0.256132C5.86143 0.251328 5.87819 0.249355 5.89491 0.250304C5.91164 0.249185 5.92843 0.251161 5.94445 0.256132C5.95663 0.256258 5.96861 0.259252 5.97941 0.264873C6.01816 0.275045 6.05405 0.293987 6.08431 0.320235C6.10108 0.333556 6.1158 0.349263 6.12802 0.366856C6.60879 0.908823 7.83259 1.02246 8.41535 1.02538C8.47071 1.02538 8.52025 1.02246 8.56104 1.02246C8.59999 1.02032 8.63897 1.02619 8.67556 1.03973C8.71215 1.05326 8.74557 1.07416 8.77375 1.10113C8.80227 1.12813 8.82499 1.16066 8.84052 1.19673C8.85605 1.2328 8.86406 1.27166 8.86408 1.31093V3.77892C8.86408 3.8562 8.83338 3.93031 8.77873 3.98496C8.72409 4.0396 8.64998 4.0703 8.5727 4.0703C8.49542 4.0703 8.4213 4.0396 8.36666 3.98496C8.31202 3.93031 8.28132 3.8562 8.28132 3.77892V1.60231C8.21721 1.60231 8.14145 1.59939 8.05987 1.59357C7.46545 1.5586 6.49807 1.42748 5.89491 0.940875C5.81352 0.879405 5.73924 0.809038 5.67346 0.731082C5.63011 0.680884 5.6053 0.617326 5.60318 0.551032C5.60105 0.484737 5.62175 0.419723 5.66181 0.366856Z" fill="black" fill-opacity="0.5"/>
<path d="M2.92578 3.77892V1.31093C2.92604 1.23219 2.95747 1.15676 3.0132 1.10113C3.07188 1.04718 3.14912 1.01796 3.22882 1.01955C3.26961 1.02246 3.31914 1.02246 3.37159 1.02246C3.95727 1.02246 5.18398 0.911737 5.66184 0.366856C5.66767 0.363942 5.67058 0.358115 5.6735 0.355201C5.70842 0.311342 5.75638 0.279711 5.81045 0.264873C5.82125 0.259252 5.83323 0.256258 5.84541 0.256132C5.86146 0.251328 5.87822 0.249355 5.89495 0.250304C5.91168 0.249185 5.92847 0.251161 5.94448 0.256132C5.95666 0.256258 5.96864 0.259252 5.97945 0.264873C6.01819 0.275045 6.05408 0.293987 6.08434 0.320235C6.10111 0.333556 6.11584 0.349263 6.12805 0.366856C6.16811 0.419723 6.1888 0.484737 6.18668 0.551032C6.18456 0.617326 6.15975 0.680884 6.11639 0.731082C6.05062 0.809038 5.97634 0.879405 5.89495 0.940875C5.29179 1.42748 4.32441 1.5586 3.72999 1.59357C3.6484 1.59939 3.57265 1.60231 3.50854 1.60231V3.77892C3.50854 3.8562 3.47784 3.93031 3.4232 3.98496C3.36855 4.0396 3.29444 4.0703 3.21716 4.0703C3.13988 4.0703 3.06577 4.0396 3.01112 3.98496C2.95648 3.93031 2.92578 3.8562 2.92578 3.77892Z" fill="black" fill-opacity="0.5"/>
<path d="M6.03302 1.57673V1.9969H6.45319V2.29265H6.03302V2.71283H5.73727V2.29265H5.3171V1.9972H5.73727V1.57702H6.03302M6.03302 1.28564H5.73727C5.65999 1.28564 5.58588 1.31634 5.53124 1.37099C5.47659 1.42563 5.44589 1.49975 5.44589 1.57702V1.70581H5.3171C5.23982 1.70581 5.16571 1.73651 5.11107 1.79116C5.05642 1.8458 5.02572 1.91992 5.02572 1.9972V2.29295C5.02572 2.37022 5.05642 2.44434 5.11107 2.49898C5.16571 2.55363 5.23982 2.58433 5.3171 2.58433H5.44589V2.71312C5.44589 2.7904 5.47659 2.86451 5.53124 2.91915C5.58588 2.9738 5.65999 3.0045 5.73727 3.0045H6.03302C6.1103 3.0045 6.18442 2.9738 6.23906 2.91915C6.2937 2.86451 6.3244 2.7904 6.3244 2.71312V2.58433H6.45319C6.53047 2.58433 6.60459 2.55363 6.65923 2.49898C6.71388 2.44434 6.74457 2.37022 6.74457 2.29295V1.9972C6.74457 1.91992 6.71388 1.8458 6.65923 1.79116C6.60459 1.73651 6.53047 1.70581 6.45319 1.70581H6.3244V1.57702C6.3244 1.49975 6.2937 1.42563 6.23906 1.37099C6.18442 1.31634 6.1103 1.28564 6.03302 1.28564ZM2.667 6.05904C2.62321 6.05908 2.57998 6.04925 2.54052 6.03029C2.50105 6.01132 2.46637 5.98371 2.43905 5.9495C2.41172 5.91529 2.39246 5.87536 2.38269 5.83268C2.37292 5.79 2.37289 5.74566 2.38261 5.70297C2.38319 5.6884 2.38319 5.67004 2.38349 5.6479C2.37477 4.95838 2.57777 4.28278 2.96508 3.71226C3.00076 3.66031 3.05227 3.62127 3.11194 3.60095C3.18769 3.57502 4.99192 2.9707 6.49457 3.16097C6.55001 3.16796 6.60227 3.19075 6.64511 3.22662C6.68796 3.26249 6.7196 3.30992 6.73624 3.36326C6.75288 3.4166 6.75384 3.47361 6.73899 3.52748C6.72414 3.58135 6.69412 3.62981 6.6525 3.6671C6.56217 3.74781 4.42723 5.6444 2.73489 6.05059C2.71258 6.05606 2.68968 6.0588 2.66671 6.05875L2.667 6.05904ZM3.39195 4.12311C3.15543 4.49869 3.01346 4.92601 2.97819 5.36847C3.95717 4.94948 4.87031 4.39094 5.68919 3.71022C4.90944 3.75335 4.13792 3.89201 3.39195 4.12311ZM2.57958 14.9447C2.34907 14.9447 2.12372 14.8763 1.93206 14.7483C1.74039 14.6202 1.591 14.4382 1.50278 14.2252C1.41457 14.0122 1.39149 13.7779 1.43646 13.5518C1.48143 13.3257 1.59243 13.118 1.75544 12.955C1.91844 12.792 2.12611 12.681 2.3522 12.636C2.57829 12.5911 2.81264 12.6141 3.02561 12.7024C3.23858 12.7906 3.42061 12.94 3.54868 13.1316C3.67675 13.3233 3.74511 13.5486 3.74511 13.7792C3.7448 14.0882 3.6219 14.3845 3.40339 14.603C3.18488 14.8215 2.88861 14.9444 2.57958 14.9447ZM2.57958 13.1964C2.46433 13.1964 2.35165 13.2306 2.25582 13.2946C2.15999 13.3586 2.08529 13.4497 2.04118 13.5561C1.99708 13.6626 1.98554 13.7798 2.00802 13.8928C2.03051 14.0059 2.08601 14.1097 2.16751 14.1912C2.24901 14.2727 2.35285 14.3282 2.46589 14.3507C2.57894 14.3732 2.69611 14.3617 2.8026 14.3176C2.90908 14.2734 3.0001 14.1988 3.06413 14.1029C3.12817 14.0071 3.16234 13.8944 3.16234 13.7792C3.16219 13.6246 3.10074 13.4765 2.99149 13.3673C2.88223 13.258 2.73409 13.1966 2.57958 13.1964Z" fill="black" fill-opacity="0.5"/>
<path d="M2.57894 13.1956C2.51537 13.1955 2.45357 13.1746 2.403 13.1361C2.35243 13.0976 2.31587 13.0436 2.29893 12.9823C2.20988 12.5628 2.20546 12.1296 2.28591 11.7084C2.36636 11.2871 2.53008 10.8861 2.76747 10.5289C2.80927 10.4639 2.8752 10.4181 2.95075 10.4017C3.02629 10.3853 3.10527 10.3995 3.1703 10.4413C3.23533 10.4831 3.28109 10.5491 3.29751 10.6246C3.31393 10.7002 3.29967 10.7791 3.25786 10.8442C3.06428 11.1324 2.92956 11.4561 2.86145 11.7966C2.79335 12.137 2.79319 12.4876 2.861 12.8282C2.8809 12.9027 2.87054 12.982 2.83216 13.0489C2.79378 13.1157 2.73051 13.1647 2.65616 13.1851C2.63099 13.192 2.60503 13.1955 2.57894 13.1956ZM11.3667 14.9785C11.3246 14.9788 11.283 14.9699 11.2447 14.9525C11.2065 14.9351 11.1724 14.9096 11.145 14.8777C11.1176 14.8458 11.0974 14.8084 11.0858 14.7679C11.0743 14.7275 11.0717 14.685 11.0782 14.6435C11.0814 14.6202 11.4162 12.2757 9.8212 11.4744C9.75211 11.4397 9.69965 11.3789 9.67537 11.3055C9.65108 11.2321 9.65694 11.152 9.69168 11.0829C9.72642 11.0139 9.78718 10.9614 9.86059 10.9371C9.93401 10.9128 10.0141 10.9187 10.0832 10.9534C12.0584 11.9459 11.6712 14.6184 11.654 14.7318C11.6434 14.8004 11.6086 14.8629 11.5559 14.9082C11.5032 14.9534 11.4361 14.9784 11.3667 14.9785ZM5.8593 12.2375H5.829L5.81734 12.2372C5.1259 12.2279 4.45543 11.9957 3.58741 11.466C3.52227 11.4253 3.47581 11.3606 3.45812 11.2859C3.44043 11.2112 3.45295 11.1325 3.49296 11.0669C3.53297 11.0014 3.59722 10.9543 3.67176 10.9359C3.7463 10.9175 3.8251 10.9292 3.89103 10.9686C4.67338 11.4461 5.25993 11.6519 5.84765 11.6545C6.5031 11.6228 7.13718 11.4113 7.68043 11.0432C7.74693 11.0054 7.8256 10.9953 7.89947 11.0151C7.97334 11.0348 8.03649 11.0828 8.0753 11.1487C8.11411 11.2146 8.12547 11.2931 8.10693 11.3672C8.08838 11.4414 8.04142 11.5053 7.97618 11.5452C7.35173 11.9592 6.62763 12.1981 5.87941 12.237C5.873 12.2375 5.86659 12.237 5.8593 12.2375ZM0.329487 14.9785C0.259979 14.9785 0.192775 14.9536 0.140027 14.9084C0.0872791 14.8631 0.0524698 14.8004 0.041894 14.7318C0.0235371 14.6117 -0.385561 11.7789 1.796 10.8695C1.86733 10.8398 1.94756 10.8396 2.01903 10.869C2.09051 10.8984 2.14738 10.9549 2.17713 11.0263C2.20688 11.0976 2.20708 11.1778 2.17768 11.2493C2.14828 11.3208 2.09169 11.3776 2.02037 11.4074C0.261595 12.1408 0.614456 14.6184 0.618244 14.6438C0.624701 14.6853 0.622062 14.7277 0.610509 14.7681C0.598957 14.8085 0.578767 14.8459 0.551335 14.8778C0.523904 14.9096 0.489886 14.9351 0.451632 14.9525C0.413378 14.9699 0.371511 14.9788 0.329487 14.9785Z" fill="black" fill-opacity="0.5"/>
<path d="M8.53927 15.2499C8.52994 15.2499 8.52033 15.2496 8.51071 15.2487C8.43394 15.2412 8.36328 15.2035 8.31423 15.144C8.26518 15.0844 8.24174 15.0079 8.24905 14.9311L8.27003 14.7131C8.19679 14.6763 8.13092 14.6263 8.07568 14.5657C7.67853 14.133 7.77993 13.1403 7.81344 12.8882C7.80849 12.4599 8.00196 11.7227 8.7307 11.5289C8.66856 11.2319 8.53143 10.9558 8.33239 10.7268C8.30581 10.6992 8.28493 10.6667 8.27092 10.6311C8.25691 10.5954 8.25005 10.5574 8.25074 10.5191C8.25143 10.4809 8.25965 10.4431 8.27494 10.408C8.29022 10.3729 8.31227 10.3412 8.33982 10.3146C8.36737 10.288 8.39988 10.2671 8.43551 10.2531C8.47113 10.2391 8.50916 10.2323 8.54744 10.233C8.58571 10.2336 8.62347 10.2419 8.65856 10.2572C8.69366 10.2724 8.7254 10.2945 8.75198 10.322C9.09487 10.7248 9.30689 11.2226 9.35979 11.7489C9.36314 11.7883 9.35843 11.828 9.34597 11.8655C9.3335 11.903 9.31354 11.9375 9.28729 11.9671C9.26105 11.9966 9.22906 12.0205 9.19329 12.0373C9.15751 12.0541 9.11869 12.0635 9.07919 12.0648C8.41339 12.0869 8.39358 12.7623 8.39649 12.8975C8.39681 12.9134 8.39583 12.9293 8.39358 12.945C8.34891 13.2644 8.35077 13.5886 8.39911 13.9075C8.42908 13.871 8.46766 13.8426 8.51136 13.8248C8.55506 13.807 8.6025 13.8004 8.64941 13.8055C8.68749 13.8091 8.72449 13.8202 8.75828 13.8381C8.79207 13.856 8.822 13.8804 8.84636 13.9099C8.87071 13.9394 8.88902 13.9734 8.90022 14.01C8.91142 14.0466 8.91531 14.085 8.91165 14.1231L8.87814 14.4751C8.87877 14.4891 8.87838 14.5031 8.87698 14.517L8.82919 14.9879C8.82197 15.0598 8.7883 15.1264 8.73473 15.1749C8.68116 15.2233 8.6115 15.2499 8.53927 15.2499Z" fill="black" fill-opacity="0.5"/>
<path d="M9.71704 15.2499C9.64495 15.2498 9.57543 15.223 9.52194 15.1747C9.46844 15.1264 9.43476 15.0599 9.42741 14.9882L9.37933 14.5174C9.37795 14.503 9.37756 14.4886 9.37816 14.4742L9.34466 14.1231C9.33735 14.0462 9.36087 13.9696 9.41004 13.91C9.45922 13.8505 9.53002 13.8129 9.6069 13.8055C9.65388 13.8003 9.70141 13.807 9.74517 13.8249C9.78893 13.8427 9.82754 13.8712 9.85749 13.9078C9.90594 13.5888 9.9079 13.2646 9.86331 12.9451C9.86107 12.9288 9.86009 12.9125 9.8604 12.8961C9.86331 12.7624 9.8435 12.0869 9.17769 12.0648C9.13869 12.0647 9.10011 12.0568 9.06423 12.0415C9.02835 12.0262 8.99591 12.0038 8.96883 11.9757C8.94175 11.9477 8.92058 11.9144 8.90657 11.878C8.89257 11.8416 8.88602 11.8028 8.8873 11.7638C8.88859 11.7248 8.89769 11.6865 8.91407 11.6511C8.93044 11.6157 8.95376 11.5839 8.98264 11.5577C9.01151 11.5315 9.04535 11.5113 9.08216 11.4984C9.11897 11.4855 9.158 11.4802 9.19693 11.4826C10.1984 11.5156 10.449 12.4016 10.4432 12.8882C10.4767 13.1403 10.5778 14.133 10.1806 14.5654C10.1256 14.6263 10.0598 14.6764 9.98657 14.7132L10.0073 14.9308C10.0146 15.0075 9.99121 15.084 9.94228 15.1435C9.89336 15.203 9.82285 15.2408 9.74618 15.2484C9.73649 15.2493 9.72677 15.2498 9.71704 15.2499ZM5.78399 14.9792C5.73019 14.9792 5.67744 14.9642 5.63158 14.9361C5.58571 14.908 5.54851 14.8677 5.52408 14.8198L3.87545 11.5759C3.85792 11.5417 3.8473 11.5045 3.84421 11.4662C3.84112 11.428 3.84561 11.3895 3.85743 11.353C3.86925 11.3165 3.88816 11.2827 3.91308 11.2535C3.938 11.2243 3.96844 11.2004 4.00265 11.183C4.03685 11.1656 4.07416 11.1551 4.11242 11.1522C4.15068 11.1493 4.18914 11.1539 4.22559 11.1659C4.26204 11.1779 4.29577 11.197 4.32484 11.222C4.35391 11.2471 4.37775 11.2776 4.39498 11.3119L6.04361 14.5558C6.06616 14.6002 6.07697 14.6496 6.07499 14.6994C6.07301 14.7491 6.05832 14.7975 6.03231 14.84C6.00631 14.8825 5.96985 14.9175 5.92643 14.9419C5.88301 14.9663 5.83378 14.9791 5.78399 14.9792Z" fill="black" fill-opacity="0.5"/>
<path d="M5.78316 14.9791C5.73315 14.9791 5.68399 14.9661 5.64043 14.9416C5.59686 14.917 5.56036 14.8816 5.53442 14.8389C5.50849 14.7961 5.494 14.7474 5.49235 14.6974C5.4907 14.6474 5.50194 14.5978 5.525 14.5534L7.17334 11.3768C7.20896 11.3082 7.27037 11.2566 7.34406 11.2333C7.41775 11.21 7.49768 11.2169 7.56626 11.2525C7.63485 11.2882 7.68647 11.3496 7.70978 11.4233C7.73308 11.4969 7.72616 11.5769 7.69054 11.6455L6.0422 14.8221C6.01757 14.8695 5.98038 14.9092 5.93469 14.9369C5.88901 14.9646 5.83659 14.9792 5.78316 14.9791Z" fill="black" fill-opacity="0.5"/>
</svg>
