<svg width="17" height="16" viewBox="0 0 17 16" fill="none" xmlns="http://www.w3.org/2000/svg">
<path d="M9.27241 6.08417L6.97342 4.35804V11.142L9.27241 9.41583L11.496 7.75L9.27241 6.08417ZM9.27241 6.08417L6.97342 4.35804V11.142L9.27241 9.41583L11.496 7.75L9.27241 6.08417ZM9.27241 6.08417L6.97342 4.35804V11.142L9.27241 9.41583L11.496 7.75L9.27241 6.08417ZM7.72719 1.77261V0.25C6.21211 0.400754 4.83272 1.00377 3.71714 1.91583L4.78749 2.99372C5.63921 2.32881 6.65503 1.90685 7.72719 1.77261ZM3.72468 4.05653L2.64679 2.98618C1.7082 4.12934 1.12862 5.52452 0.980957 6.99623H2.50357C2.63925 5.89573 3.07643 4.89322 3.72468 4.05653ZM2.50357 8.50377H0.980957C1.13171 10.0188 1.73473 11.3982 2.64679 12.5138L3.72468 11.4359C3.05861 10.5877 2.63644 9.574 2.50357 8.50377ZM3.71714 13.5842C4.86104 14.5215 6.25583 15.1009 7.72719 15.25V13.7274C6.65503 13.5931 5.63921 13.1712 4.78749 12.5063L3.71714 13.5842ZM16.0186 7.75C16.0186 11.6394 13.0639 14.8505 9.27241 15.25V13.7274C12.2272 13.3354 14.5111 10.8028 14.5111 7.75C14.5111 4.69724 12.2272 2.16457 9.27241 1.77261V0.25C13.0639 0.649497 16.0186 3.86055 16.0186 7.75Z" fill="white"/>
</svg>
