<svg width="22" height="18" viewBox="0 0 22 18" fill="none" xmlns="http://www.w3.org/2000/svg">
<path d="M18.9055 6C19.2876 6 19.6548 6.05664 19.9999 6.16156V6C19.9999 4.34315 18.6567 3 16.9999 3H13.1212C12.9223 3 12.7315 2.92098 12.5909 2.78033L10.4695 0.65901C10.0476 0.237053 9.47529 0 8.87856 0H4.99988C3.34302 0 1.99988 1.34315 1.99988 3V6.16152C2.34496 6.05663 2.71211 6 3.09409 6H18.9055Z" fill="black"/>
<path d="M3.09417 7.5C1.72494 7.5 0.673147 8.71272 0.866786 10.0682L1.72393 16.0682C1.88228 17.1767 2.8316 18 3.95132 18H18.0485C19.1682 18 20.1175 17.1767 20.2759 16.0682L21.133 10.0682C21.3267 8.71272 20.2749 7.5 18.9056 7.5H3.09417Z" fill="black"/>
</svg>
