<svg width="22" height="18" viewBox="0 0 22 18" fill="none" xmlns="http://www.w3.org/2000/svg">
<path d="M2.7499 6.77602C2.86194 6.7589 2.97689 6.75 3.09417 6.75H18.9056C19.0229 6.75 19.1379 6.7589 19.2499 6.77602M2.7499 6.77602C1.55389 6.9588 0.689733 8.07882 0.866786 9.3182L1.72393 15.3182C1.88228 16.4267 2.8316 17.25 3.95132 17.25H18.0485C19.1682 17.25 20.1175 16.4267 20.2759 15.3182L21.133 9.3182C21.3101 8.07883 20.4459 6.9588 19.2499 6.77602M2.7499 6.77602V3C2.7499 1.75736 3.75726 0.75 4.9999 0.75H8.87858C9.27641 0.75 9.65794 0.908035 9.93924 1.18934L12.0606 3.31066C12.3419 3.59197 12.7234 3.75 13.1212 3.75H16.9999C18.2425 3.75 19.2499 4.75736 19.2499 6V6.77602" stroke="black" stroke-width="1.5" stroke-linecap="round" stroke-linejoin="round"/>
</svg>
