<svg width="31" height="37" viewBox="0 0 31 37" fill="none" xmlns="http://www.w3.org/2000/svg">
<path d="M12.259 17.8906H9.92715V15.5587H12.259V17.8906ZM21.5866 17.8906H19.2547V15.5587H21.5866V17.8906ZM30.9141 15.5587V20.2224H28.5822V26.0522C28.5822 26.538 28.4911 26.9934 28.309 27.4185C28.1268 27.8436 27.8778 28.214 27.562 28.5298C27.2463 28.8456 26.8758 29.0945 26.4507 29.2767C26.0257 29.4589 25.5702 29.55 25.0844 29.55H20.2749L12.259 36.3999V29.55H6.42932C5.94351 29.55 5.48807 29.4589 5.06298 29.2767C4.6379 29.0945 4.26747 28.8456 3.95169 28.5298C3.63592 28.214 3.38694 27.8436 3.20476 27.4185C3.02258 26.9934 2.93149 26.538 2.93149 26.0522V20.2224H0.599609V15.5587H2.93149V12.0608C2.93149 11.575 3.02258 11.1196 3.20476 10.6945C3.38694 10.2694 3.63592 9.899 3.95169 9.58322C4.26747 9.26744 4.6379 9.01847 5.06298 8.83629C5.48807 8.65411 5.94351 8.56302 6.42932 8.56302H14.5909V4.75549C14.2387 4.54902 13.9594 4.26361 13.7529 3.89925C13.5464 3.53489 13.4371 3.14624 13.425 2.73331C13.425 2.40538 13.4857 2.10175 13.6072 1.82241C13.7286 1.54307 13.8926 1.30017 14.099 1.0937C14.3055 0.88723 14.5545 0.717197 14.846 0.583599C15.1375 0.450001 15.4411 0.389275 15.7569 0.40142C16.0848 0.40142 16.3884 0.462147 16.6678 0.583599C16.9471 0.705051 17.19 0.869012 17.3965 1.07548C17.6029 1.28195 17.773 1.53093 17.9066 1.82241C18.0402 2.1139 18.1009 2.41753 18.0887 2.73331C18.0887 3.14624 17.9855 3.53489 17.779 3.89925C17.5726 4.26361 17.2872 4.54902 16.9228 4.75549V8.56302H25.0844C25.5702 8.56302 26.0257 8.65411 26.4507 8.83629C26.8758 9.01847 27.2463 9.26744 27.562 9.58322C27.8778 9.899 28.1268 10.2694 28.309 10.6945C28.4911 11.1196 28.5822 11.575 28.5822 12.0608V15.5587H30.9141ZM26.2503 12.0608C26.2503 11.7451 26.135 11.4718 25.9042 11.241C25.6734 11.0103 25.4002 10.8949 25.0844 10.8949H6.42932C6.11355 10.8949 5.84028 11.0103 5.60952 11.241C5.37876 11.4718 5.26338 11.7451 5.26338 12.0608V26.0522C5.26338 26.3679 5.37876 26.6412 5.60952 26.872C5.84028 27.1027 6.11355 27.2181 6.42932 27.2181H14.5909V31.3353L19.4004 27.2181H25.0844C25.4002 27.2181 25.6734 27.1027 25.9042 26.872C26.135 26.6412 26.2503 26.3679 26.2503 26.0522V12.0608ZM10.747 20.4775C11.4149 21.1455 12.1801 21.6556 13.0424 22.0078C13.9047 22.36 14.8095 22.5422 15.7569 22.5543C16.7042 22.5543 17.609 22.3782 18.4713 22.026C19.3336 21.6738 20.0988 21.1576 20.7668 20.4775L22.4064 22.1353C21.5198 23.0219 20.5057 23.7021 19.364 24.1757C18.2223 24.6494 17.02 24.8862 15.7569 24.8862C14.5059 24.8862 13.3096 24.6494 12.1679 24.1757C11.0263 23.7021 10.0061 23.0219 9.10735 22.1353L10.747 20.4775Z" fill="white"/>
</svg>
