<svg width="38" height="39" viewBox="0 0 38 39" fill="none" xmlns="http://www.w3.org/2000/svg">
<path fill-rule="evenodd" clip-rule="evenodd" d="M31.7886 33.8224C35.3686 30.3577 37.6035 25.443 37.6035 19.9922C37.6035 9.49878 29.3208 0.992188 19.1035 0.992188C8.88625 0.992188 0.603516 9.49878 0.603516 19.9922C0.603516 25.443 2.83842 30.3577 6.41845 33.8224C9.73041 37.0278 14.1936 38.9922 19.1035 38.9922C24.0134 38.9922 28.4766 37.0278 31.7886 33.8224ZM7.99426 31.3187C10.6023 27.9776 14.6096 25.8383 19.1035 25.8383C23.5974 25.8383 27.6048 27.9776 30.2128 31.3187C27.3769 34.2525 23.4467 36.0691 19.1035 36.0691C14.7603 36.0691 10.8302 34.2525 7.99426 31.3187ZM26.2189 14.146C26.2189 18.182 23.0332 21.4537 19.1035 21.4537C15.1738 21.4537 11.9881 18.182 11.9881 14.146C11.9881 10.1101 15.1738 6.83834 19.1035 6.83834C23.0332 6.83834 26.2189 10.1101 26.2189 14.146Z" fill="#6B337F"/>
</svg>
