<svg width="17" height="17" viewBox="0 0 17 17" fill="none" xmlns="http://www.w3.org/2000/svg">
<path d="M8.8178 6.63461C10.3047 6.63461 11.5101 5.42923 11.5101 3.94231C11.5101 2.45539 10.3047 1.25 8.8178 1.25C7.33088 1.25 6.12549 2.45539 6.12549 3.94231C6.12549 5.42923 7.33088 6.63461 8.8178 6.63461Z" stroke="black" stroke-opacity="0.5" stroke-linecap="round" stroke-linejoin="round"/>
<path d="M1.12549 15.4805C1.12549 12.0818 4.22506 9.32666 8.04856 9.32666" stroke="black" stroke-opacity="0.5" stroke-linecap="round" stroke-linejoin="round"/>
<path d="M12.6637 16.2497C14.5754 16.2497 16.1252 14.7 16.1252 12.7882C16.1252 10.8764 14.5754 9.32666 12.6637 9.32666C10.7519 9.32666 9.20215 10.8764 9.20215 12.7882C9.20215 14.7 10.7519 16.2497 12.6637 16.2497Z" stroke="black" stroke-opacity="0.5"/>
<path d="M12.2793 11.6348V13.1732H13.8178" stroke="black" stroke-opacity="0.5" stroke-linecap="round" stroke-linejoin="round"/>
</svg>
