<svg width="17" height="21" viewBox="0 0 17 21" fill="none" xmlns="http://www.w3.org/2000/svg">
<path fill-rule="evenodd" clip-rule="evenodd" d="M3.16269 14.9921C3.23804 15.0997 3.29144 15.2211 3.31986 15.3493C3.34827 15.4776 3.35114 15.6102 3.32829 15.7395C3.30545 15.8689 3.25734 15.9925 3.18672 16.1032C3.11609 16.214 3.02434 16.3098 2.91669 16.3851C2.79416 16.4639 2.68623 16.5633 2.59769 16.6791L2.57369 16.7211L2.60869 16.7791C2.63869 16.8191 2.68669 16.8741 2.76869 16.9441C2.99869 17.1401 3.38869 17.3611 3.95869 17.5671C5.09269 17.9761 6.72269 18.2481 8.56969 18.2481C10.4177 18.2481 12.0477 17.9761 13.1797 17.5681C13.5187 17.4451 13.7937 17.3181 14.0097 17.1931L14.4387 17.6231C14.6472 17.8315 14.9064 17.9822 15.1908 18.0602C15.4752 18.1382 15.775 18.1409 16.0607 18.0681C15.9407 18.2151 15.8067 18.3481 15.6687 18.4651C15.1897 18.8751 14.5557 19.1971 13.8587 19.4491C12.4577 19.9541 10.5877 20.2481 8.56969 20.2481C6.55169 20.2481 4.68169 19.9541 3.27969 19.4481C2.58369 19.1981 1.94969 18.8741 1.47069 18.4651C0.995695 18.0601 0.569695 17.4751 0.569695 16.7211C0.569695 15.8231 1.16769 15.1681 1.76969 14.7461C1.8773 14.6707 1.9987 14.6173 2.12695 14.5889C2.2552 14.5605 2.3878 14.5576 2.51716 14.5805C2.64652 14.6033 2.77011 14.6514 2.88088 14.722C2.99164 14.7927 3.0874 14.8844 3.16269 14.9921ZM8.56969 0.248055C10.0468 0.247997 11.495 0.656864 12.7539 1.42935C14.0129 2.20184 15.0334 3.30779 15.7024 4.62466C16.3714 5.94153 16.6628 7.4179 16.5442 8.89019C16.4256 10.3625 15.9018 11.7732 15.0307 12.9661L14.8447 13.2101L16.3477 14.7131C16.527 14.893 16.6312 15.1345 16.6389 15.3884C16.6467 15.6424 16.5575 15.8898 16.3894 16.0803C16.2214 16.2709 15.9871 16.3904 15.7342 16.4145C15.4813 16.4385 15.2287 16.3655 15.0277 16.2101L14.9337 16.1271L0.791695 1.98506C0.612347 1.8051 0.508221 1.56362 0.500466 1.30967C0.492712 1.05572 0.58191 0.808342 0.749943 0.617777C0.917977 0.427211 1.15225 0.30775 1.40517 0.283656C1.65809 0.259563 1.9107 0.332643 2.11169 0.488055L2.20569 0.571055L3.60769 1.97306C5.01906 0.85353 6.76823 0.245448 8.56969 0.248055ZM1.43769 4.62106L2.95169 6.13606C2.54502 7.21557 2.45816 8.38943 2.70152 9.51704C2.94488 10.6447 3.50815 11.6782 4.32385 12.4939C5.13955 13.3096 6.1731 13.8729 7.30071 14.1162C8.42832 14.3596 9.60218 14.2727 10.6817 13.8661L12.1967 15.3801C10.6914 16.1471 8.98192 16.4178 7.31327 16.1535C5.64463 15.8893 4.10248 15.1035 2.90787 13.9089C1.71325 12.7143 0.927492 11.1721 0.663211 9.50348C0.398929 7.83483 0.669693 6.12536 1.43669 4.62006L1.43769 4.62106ZM4.59669 7.78106L9.03669 12.2211C8.47583 12.287 7.90735 12.2334 7.36868 12.0638C6.83001 11.8943 6.33334 11.6126 5.91137 11.2373C5.48939 10.862 5.15167 10.4016 4.92042 9.88634C4.68918 9.37113 4.56964 8.81279 4.56969 8.24806L4.57769 8.01206L4.59769 7.78006L4.59669 7.78106ZM8.56969 2.24806C7.29881 2.2462 6.06046 2.64976 5.03469 3.40006L6.47469 4.84006C7.24098 4.36851 8.14387 4.16909 9.03748 4.27402C9.93109 4.37894 10.7632 4.78208 11.3995 5.4183C12.0357 6.05452 12.4388 6.88666 12.5437 7.78027C12.6487 8.67388 12.4492 9.57677 11.9777 10.3431L13.4177 11.7831C14.0701 10.8883 14.4622 9.83036 14.5505 8.72649C14.6388 7.62262 14.4199 6.51584 13.918 5.52871C13.4161 4.54158 12.6508 3.71261 11.7068 3.13358C10.7629 2.55456 9.67709 2.24807 8.56969 2.24806ZM8.56969 6.24806C8.36169 6.24806 8.1617 6.28006 7.97369 6.33806L10.4797 8.84406C10.573 8.54458 10.5945 8.22736 10.5426 7.91802C10.4907 7.60867 10.3669 7.31586 10.181 7.06321C9.99507 6.81056 9.75239 6.60514 9.47251 6.46355C9.19262 6.32195 8.88336 6.24813 8.56969 6.24806Z" fill="white"/>
</svg>
