<svg width="20" height="20" viewBox="0 0 20 20" fill="none" xmlns="http://www.w3.org/2000/svg">
<path d="M15.8738 12.5728L14.466 11.165C14.6926 10.7929 14.8625 10.4045 14.9757 10C15.089 9.59547 15.1456 9.17476 15.1456 8.73786H17.0874C17.0874 9.44984 16.9822 10.1252 16.7718 10.7641C16.5615 11.4029 16.2621 12.0058 15.8738 12.5728ZM13.0097 9.66019L11.2621 7.91262V2.91262C11.2621 2.63754 11.1689 2.4068 10.9825 2.22039C10.7961 2.03398 10.5657 1.9411 10.2913 1.94175C10.0162 1.94175 9.78544 2.03495 9.59903 2.22136C9.41262 2.40777 9.31974 2.63819 9.32039 2.91262V5.97087L7.37864 4.02913V2.91262C7.37864 2.10356 7.66181 1.41586 8.22816 0.849515C8.7945 0.283172 9.4822 0 10.2913 0C11.1003 0 11.788 0.283172 12.3544 0.849515C12.9207 1.41586 13.2039 2.10356 13.2039 2.91262V8.73786C13.2039 8.91586 13.1835 9.07767 13.1427 9.2233C13.1019 9.36893 13.0576 9.51456 13.0097 9.66019ZM9.32039 18.4466V15.4612C7.63754 15.2346 6.24595 14.4822 5.14563 13.2039C4.04531 11.9256 3.49515 10.4369 3.49515 8.73786H5.43689C5.43689 10.0809 5.90226 11.2259 6.83301 12.1728C7.76375 13.1197 8.9165 13.5929 10.2913 13.5922C10.8414 13.5922 11.3634 13.5071 11.8573 13.3369C12.3511 13.1667 12.8 12.9282 13.2039 12.6214L14.5874 14.0049C14.1181 14.377 13.6042 14.6926 13.0456 14.9515C12.4871 15.2104 11.8926 15.3803 11.2621 15.4612V18.4466H9.32039ZM17.8641 20L0 2.13592L1.35922 0.776699L19.2233 18.6408L17.8641 20Z" fill="white"/>
</svg>
