<svg width="20" height="21" viewBox="0 0 20 21" fill="none" xmlns="http://www.w3.org/2000/svg">
<path d="M18.5859 20.248L15.5303 17.1925C15.1094 17.4619 14.6633 17.6935 14.1919 17.8874C13.7205 18.0814 13.2323 18.2369 12.7273 18.3541V16.2834C12.963 16.1992 13.1946 16.115 13.4222 16.0309C13.6498 15.9467 13.8643 15.8457 14.0657 15.7278L10.7071 12.3693V17.6218L5.65657 12.5713H1.61616V6.51067H4.84848L0 1.66219L1.41414 0.248047L20 18.8339L18.5859 20.248ZM18.3838 14.3895L16.9192 12.9248C17.2054 12.4029 17.4202 11.8558 17.5636 11.2834C17.7071 10.711 17.7785 10.1218 17.7778 9.51572C17.7778 7.93323 17.3148 6.51909 16.3889 5.2733C15.463 4.02751 14.2424 3.18576 12.7273 2.74805V0.67734C14.8148 1.14872 16.5152 2.20529 17.8283 3.84704C19.1414 5.48879 19.798 7.37835 19.798 9.51572C19.798 10.408 19.6758 11.2666 19.4313 12.0915C19.1869 12.9164 18.8377 13.6824 18.3838 14.3895ZM15 11.0056L12.7273 8.73289V5.45007C13.5185 5.82044 14.1374 6.37599 14.5838 7.11673C15.0303 7.85747 15.2532 8.66556 15.2525 9.54098C15.2525 9.7935 15.2313 10.042 15.1889 10.2864C15.1465 10.5309 15.0835 10.7706 15 11.0056ZM10.7071 6.71269L8.08081 4.08643L10.7071 1.46017V6.71269ZM8.68687 12.7228V10.3491L6.86869 8.53087H3.63636V10.5511H6.51515L8.68687 12.7228Z" fill="white"/>
</svg>
