<svg width="16" height="20" viewBox="0 0 16 20" fill="none" xmlns="http://www.w3.org/2000/svg">
<path d="M7.63179 14.2636C11.2944 14.2636 14.2636 11.2944 14.2636 7.63178C14.2636 3.96915 11.2944 1 7.63179 1C3.96915 1 1 3.96915 1 7.63178C1 11.2944 3.96915 14.2636 7.63179 14.2636Z" stroke="white" stroke-width="1.8948" stroke-linecap="round" stroke-linejoin="round"/>
<path d="M7.63175 10.4744C9.20145 10.4744 10.4739 9.20193 10.4739 7.63223C10.4739 6.06253 9.20145 4.79004 7.63175 4.79004C6.06204 4.79004 4.78955 6.06253 4.78955 7.63223C4.78955 9.20193 6.06204 10.4744 7.63175 10.4744Z" stroke="white" stroke-width="1.8948" stroke-linecap="round" stroke-linejoin="round"/>
<path d="M4.31583 13.3154L1.47363 18.9998H13.7898L10.9476 13.3154" stroke="white" stroke-width="1.8948" stroke-linecap="round" stroke-linejoin="round"/>
</svg>
