<svg width="21" height="19" viewBox="0 0 21 19" fill="none" xmlns="http://www.w3.org/2000/svg">
<path d="M14.8818 7.70508L12.3818 10.2051L13.4318 11.2551L14.0818 10.6051C13.9818 11.4884 13.6068 12.2257 12.9568 12.8171C12.3068 13.4084 11.5318 13.7044 10.6318 13.7051C10.3985 13.7051 10.1818 13.6841 9.98184 13.6421C9.78184 13.6001 9.58184 13.5377 9.38184 13.4551L8.28184 14.5551C8.63184 14.7551 9.00284 14.9134 9.39484 15.0301C9.78684 15.1467 10.1992 15.2051 10.6318 15.2051C11.9652 15.2051 13.1028 14.7551 14.0448 13.8551C14.9868 12.9551 15.4992 11.8551 15.5818 10.5551L16.3318 11.2551L17.3818 10.2051L14.8818 7.70508ZM6.38184 12.7051L8.88184 10.2051L7.83184 9.15508L7.18184 9.80508C7.28184 8.92175 7.65684 8.18441 8.30684 7.59308C8.95684 7.00174 9.73184 6.70574 10.6318 6.70508C10.8652 6.70508 11.0818 6.72608 11.2818 6.76808C11.4818 6.81008 11.6818 6.87241 11.8818 6.95508L12.9818 5.85508C12.6318 5.65508 12.2608 5.49675 11.8688 5.38008C11.4768 5.26341 11.0645 5.20508 10.6318 5.20508C9.2985 5.20508 8.16084 5.65508 7.21884 6.55508C6.27684 7.45508 5.7645 8.55508 5.68184 9.85508L4.93184 9.15508L3.88184 10.2051L6.38184 12.7051ZM2.63184 18.2051C2.08184 18.2051 1.61084 18.0091 1.21884 17.6171C0.826838 17.2251 0.631171 16.7544 0.631838 16.2051V4.20508C0.631838 3.65508 0.827838 3.18408 1.21984 2.79208C1.61184 2.40008 2.0825 2.20441 2.63184 2.20508H5.78184L7.63184 0.205078H13.6318L15.4818 2.20508H18.6318C19.1818 2.20508 19.6528 2.40108 20.0448 2.79308C20.4368 3.18508 20.6325 3.65574 20.6318 4.20508V16.2051C20.6318 16.7551 20.4358 17.2261 20.0438 17.6181C19.6518 18.0101 19.1812 18.2057 18.6318 18.2051H2.63184Z" fill="white"/>
</svg>
