<svg width="21" height="20" viewBox="0 0 21 20" fill="none" xmlns="http://www.w3.org/2000/svg">
<path d="M12.5714 20V17.6571C14.2857 17.1619 15.6667 16.2095 16.7143 14.8C17.7619 13.3905 18.2857 11.7905 18.2857 10C18.2857 8.20952 17.7619 6.60952 16.7143 5.2C15.6667 3.79048 14.2857 2.8381 12.5714 2.34286V0C14.9333 0.533333 16.8571 1.72876 18.3429 3.58629C19.8286 5.44381 20.5714 7.58171 20.5714 10C20.5714 12.419 19.8286 14.5573 18.3429 16.4149C16.8571 18.2724 14.9333 19.4674 12.5714 20ZM0 13.4571V6.6H4.57143L10.2857 0.885714V19.1714L4.57143 13.4571H0ZM12.5714 14.6V5.4C13.4667 5.81905 14.1669 6.44762 14.672 7.28572C15.1771 8.12381 15.4293 9.0381 15.4286 10.0286C15.4286 11 15.176 11.9002 14.6709 12.7291C14.1657 13.5581 13.4659 14.1817 12.5714 14.6ZM8 6.42857L5.54286 8.88571H2.28571V11.1714H5.54286L8 13.6286V6.42857Z" fill="white"/>
</svg>
