<svg width="21" height="21" viewBox="0 0 21 21" fill="none" xmlns="http://www.w3.org/2000/svg">
<path d="M20.5936 18.8731C20.6691 18.9435 20.7297 19.0284 20.7718 19.1228C20.8138 19.2171 20.8364 19.319 20.8383 19.4223C20.8401 19.5256 20.8211 19.6282 20.7824 19.7239C20.7437 19.8197 20.6861 19.9067 20.6131 19.9798C20.54 20.0528 20.453 20.1104 20.3572 20.1491C20.2615 20.1878 20.1589 20.2068 20.0556 20.205C19.9523 20.2031 19.8504 20.1805 19.7561 20.1385C19.6617 20.0964 19.5768 20.0358 19.5064 19.9603L10.8192 11.2744L2.13201 19.9603C1.98619 20.0961 1.79332 20.1701 1.59404 20.1666C1.39476 20.1631 1.20462 20.0823 1.06368 19.9414C0.922745 19.8005 0.842015 19.6103 0.838499 19.411C0.834983 19.2118 0.908955 19.0189 1.04483 18.8731L9.73073 10.1859L1.04483 1.49871C0.908955 1.35289 0.834983 1.16002 0.838499 0.960739C0.842015 0.761456 0.922745 0.571317 1.06368 0.430381C1.20462 0.289444 1.39476 0.208714 1.59404 0.205198C1.79332 0.201682 1.98619 0.275654 2.13201 0.411531L10.8192 9.09743L19.5064 0.411531C19.6522 0.275654 19.8451 0.201682 20.0443 0.205198C20.2436 0.208714 20.4338 0.289444 20.5747 0.430381C20.7156 0.571317 20.7964 0.761456 20.7999 0.960739C20.8034 1.16002 20.7294 1.35289 20.5936 1.49871L11.9077 10.1859L20.5936 18.8731Z" fill="white"/>
</svg>
